; NON-PLATED HOLES START AT T1
; THROUGH (PLATED) HOLES START AT T100
M48
INCH
T100C0.031497
T101C0.035000
T102C0.038000
%
T100
X006601Y011250
X009601Y014266
X003601Y014266
X009601Y015250
X003601Y015250
X009601Y006266
X009601Y010266
X003601Y006266
X009601Y007250
X003601Y010266
X009601Y011250
X003601Y007250
X003601Y011250
X006601Y010266
T101
X013601Y014250
X013601Y004250
X019848Y008526
X017601Y016250
X022848Y008526
X019848Y012526
X019848Y005526
X022848Y012526
X022848Y005526
X017601Y006250
X017601Y010250
X013601Y016250
X013601Y006250
X013601Y010250
X019848Y007526
X022848Y007526
X017601Y008250
X019848Y011526
X022848Y011526
X017601Y012250
X013601Y008250
X013601Y012250
X019848Y009526
X022848Y009526
X019848Y006526
X017601Y014250
X022848Y006526
X019848Y010526
X022848Y010526
X017601Y004250
T102
X026101Y012250
X026101Y005750
X026101Y013250
X026101Y011250
X026101Y004750
X026101Y014250
T00
M30
