G04 MADE WITH FRITZING*
G04 WWW.FRITZING.ORG*
G04 DOUBLE SIDED*
G04 HOLES PLATED*
G04 CONTOUR ON CENTER OF CONTOUR VECTOR*
%ASAXBY*%
%FSLAX23Y23*%
%MOIN*%
%OFA0B0*%
%SFA1.0B1.0*%
%ADD10C,0.075000*%
%ADD11C,0.062992*%
%ADD12C,0.078000*%
%ADD13R,0.062992X0.062992*%
%ADD14R,0.075000X0.075000*%
%ADD15C,0.011111*%
%ADD16C,0.012000*%
%LNCOPPER1*%
G90*
G70*
G54D10*
X1760Y1225D03*
X1360Y1225D03*
X1760Y1025D03*
X1360Y1025D03*
X1760Y1425D03*
X1360Y1425D03*
G54D11*
X960Y1427D03*
X960Y1525D03*
G54D12*
X2610Y575D03*
X2610Y475D03*
G54D11*
X360Y1027D03*
X360Y1125D03*
G54D10*
X1760Y825D03*
X1360Y825D03*
X1760Y425D03*
X1360Y425D03*
G54D11*
X960Y627D03*
X960Y725D03*
G54D12*
X2610Y1225D03*
X2610Y1125D03*
G54D11*
X960Y1027D03*
X960Y1125D03*
X360Y627D03*
X360Y725D03*
G54D12*
X2610Y1425D03*
X2610Y1325D03*
G54D11*
X660Y1027D03*
X660Y1125D03*
X360Y1427D03*
X360Y1525D03*
G54D10*
X1760Y625D03*
X1360Y625D03*
X1760Y1625D03*
X1360Y1625D03*
X1985Y1253D03*
X2285Y1253D03*
X1985Y1153D03*
X2285Y1153D03*
X1985Y1053D03*
X2285Y1053D03*
X1985Y953D03*
X2285Y953D03*
X1985Y853D03*
X2285Y853D03*
X1985Y753D03*
X2285Y753D03*
X1985Y653D03*
X2285Y653D03*
X1985Y553D03*
X2285Y553D03*
G54D13*
X960Y1427D03*
X360Y1027D03*
X960Y627D03*
X960Y1027D03*
X360Y627D03*
X660Y1027D03*
X360Y1427D03*
G54D14*
X1985Y1253D03*
G54D15*
X2410Y1375D02*
X2411Y1153D01*
D02*
X2411Y1153D02*
X2308Y1153D01*
D02*
X2059Y1626D02*
X2410Y1375D01*
D02*
X1783Y1625D02*
X2059Y1626D01*
G54D16*
D02*
X2459Y574D02*
X2306Y643D01*
D02*
X2586Y575D02*
X2459Y574D01*
D02*
X1862Y1253D02*
X1962Y1253D01*
D02*
X1862Y1426D02*
X1862Y1253D01*
D02*
X1783Y1425D02*
X1862Y1426D01*
D02*
X1760Y1202D02*
X1760Y1153D01*
D02*
X1760Y1153D02*
X1962Y1153D01*
D02*
X1783Y1028D02*
X1962Y1050D01*
D02*
X1760Y953D02*
X1962Y953D01*
D02*
X1760Y848D02*
X1760Y953D01*
D02*
X1761Y724D02*
X1859Y724D01*
D02*
X1760Y648D02*
X1761Y724D01*
D02*
X1859Y724D02*
X1859Y826D01*
D02*
X1859Y826D02*
X1962Y848D01*
D02*
X1859Y524D02*
X1859Y626D01*
D02*
X1859Y626D02*
X1969Y736D01*
D02*
X1776Y441D02*
X1859Y524D01*
D02*
X459Y1526D02*
X559Y1625D01*
D02*
X559Y1625D02*
X1331Y1625D01*
D02*
X409Y1476D02*
X459Y1526D01*
D02*
X375Y1442D02*
X409Y1476D01*
D02*
X981Y1427D02*
X1337Y1425D01*
D02*
X1161Y1225D02*
X1337Y1225D01*
D02*
X975Y1042D02*
X1161Y1225D01*
D02*
X259Y776D02*
X360Y876D01*
D02*
X1111Y876D02*
X1259Y1024D01*
D02*
X1259Y1024D02*
X1337Y1025D01*
D02*
X360Y876D02*
X1111Y876D01*
D02*
X259Y625D02*
X259Y776D01*
D02*
X360Y525D02*
X259Y625D01*
D02*
X945Y611D02*
X860Y525D01*
D02*
X860Y525D02*
X360Y525D01*
D02*
X1331Y825D02*
X561Y826D01*
D02*
X561Y826D02*
X379Y646D01*
D02*
X1161Y625D02*
X960Y424D01*
D02*
X360Y424D02*
X209Y575D01*
D02*
X960Y424D02*
X360Y424D01*
D02*
X1337Y625D02*
X1161Y625D01*
D02*
X209Y575D02*
X209Y826D01*
D02*
X209Y826D02*
X347Y1010D01*
D02*
X111Y1075D02*
X259Y1225D01*
D02*
X259Y1225D02*
X460Y1225D01*
D02*
X460Y1225D02*
X645Y1042D01*
D02*
X111Y575D02*
X111Y1075D01*
D02*
X1340Y405D02*
X1259Y326D01*
D02*
X1259Y326D02*
X360Y326D01*
D02*
X360Y326D02*
X111Y575D01*
G04 End of Copper1*
M02*